<svg viewBox="0 0 427 433" fill="none" xmlns="http://www.w3.org/2000/svg">
<path fill-rule="evenodd" clip-rule="evenodd" d="M328.828 0.162109C323.775 0.162109 319.678 4.2587 319.678 9.31211V102.383C319.678 110.351 316.216 117.926 310.191 123.14L293.693 137.417L222.132 65.8565C217.368 61.0921 209.643 61.092 204.879 65.8564L133.561 137.175L117.343 123.14C111.318 117.926 107.856 110.351 107.856 102.383V9.31211C107.856 4.2587 103.759 0.162109 98.706 0.162109C93.6526 0.162109 89.556 4.2587 89.556 9.31211V102.383C89.556 115.663 95.3264 128.288 105.368 136.978L120.587 150.148L100.495 170.241L70.385 159.05C59.6321 155.053 52.4984 144.791 52.4984 133.319V48.9621C52.4984 43.9087 48.4018 39.8121 43.3484 39.8121C38.295 39.8121 34.1984 43.9087 34.1984 48.9621V133.319C34.1984 152.439 46.0878 169.542 64.0094 176.203L89.1813 185.559C80.0601 203.125 80.06 224.199 89.1812 241.765L60.0346 252.599C44.5026 258.371 34.1984 273.194 34.1984 289.764V378.362C34.1984 383.416 38.295 387.512 43.3484 387.512C48.4018 387.512 52.4984 383.416 52.4984 378.362V289.764C52.4984 280.842 58.0468 272.861 66.4102 269.752L100.495 257.083L120.587 277.176L103.26 292.171C94.557 299.702 89.556 310.643 89.556 322.153V418.012C89.556 423.066 93.6526 427.162 98.706 427.162C103.759 427.162 107.856 423.066 107.856 418.012V322.153C107.856 315.955 110.549 310.064 115.235 306.009L133.561 290.15L204.879 361.468C209.643 366.232 217.368 366.232 222.132 361.468L293.693 289.907L312.299 306.009C316.986 310.064 319.678 315.955 319.678 322.153L319.678 418.012C319.678 423.066 323.775 427.162 328.828 427.162C333.882 427.162 337.978 423.066 337.978 418.012V322.153C337.978 310.643 332.977 299.702 324.274 292.171L306.667 276.933L326.659 256.942L361.124 269.752C369.488 272.861 375.036 280.842 375.036 289.764V378.362C375.036 383.416 379.133 387.512 384.186 387.512C389.239 387.512 393.336 383.416 393.336 378.362V289.764C393.336 273.194 383.032 258.371 367.5 252.599L337.915 241.602C346.923 224.123 346.923 203.201 337.915 185.722L363.525 176.203C381.447 169.542 393.336 152.439 393.336 133.319V48.9621C393.336 43.9087 389.239 39.8121 384.186 39.8121C379.133 39.8121 375.036 43.9087 375.036 48.9621V133.319C375.036 144.791 367.902 155.053 357.149 159.05L326.658 170.382L306.667 150.391L322.166 136.978C332.208 128.288 337.978 115.663 337.978 102.383V9.31211C337.978 4.2587 333.882 0.162109 328.828 0.162109ZM244.479 160.51C244.895 159.665 245.553 158.329 247.395 156.488C250.372 153.511 254.409 151.839 258.619 151.839C262.828 151.839 266.866 153.511 269.842 156.488C272.819 159.464 274.492 163.502 274.492 167.712C274.492 171.921 272.819 175.959 269.842 178.935C267.999 180.779 266.667 181.435 265.822 181.851C265.697 181.912 265.584 181.968 265.48 182.022C260.113 184.82 258.379 188.194 263.992 193.807C264.543 194.358 282.082 211.134 285.261 213.906C287.339 215.721 287.979 218.489 286.372 220.622C285.16 222.233 272.501 237.728 267.265 241.967C263.212 245.244 258.214 245.359 255.157 242.302C253.775 240.916 253.254 239.22 252.707 237.423C252.501 236.75 252.39 235.846 252.265 234.829C251.955 232.308 251.56 229.09 249.421 226.951C244.618 222.148 237.025 224.662 230.679 230.839C224.502 237.185 221.988 244.778 226.791 249.581C228.927 251.717 232.146 252.113 234.668 252.424C235.686 252.549 236.59 252.661 237.263 252.867C239.06 253.414 240.76 253.935 242.142 255.317C245.199 258.378 245.089 263.376 241.807 267.425C237.568 272.656 222.073 285.319 220.462 286.532C218.329 288.134 215.557 287.499 213.746 285.421C210.974 282.242 194.199 264.703 193.647 264.152C188.03 258.535 184.66 260.273 181.862 265.64C181.808 265.743 181.752 265.856 181.692 265.98C181.275 266.825 180.617 268.161 178.776 270.002C175.799 272.979 171.761 274.652 167.552 274.652C163.342 274.652 159.305 272.979 156.328 270.002C153.351 267.026 151.679 262.988 151.679 258.779C151.679 254.569 153.351 250.531 156.328 247.555C158.172 245.711 159.504 245.055 160.348 244.64C160.473 244.578 160.587 244.522 160.69 244.468C166.057 241.67 167.791 238.296 162.178 232.683C161.627 232.132 144.089 215.356 140.909 212.584C138.832 210.769 138.192 208.001 139.798 205.868C141.011 204.258 153.67 188.762 158.905 184.523C162.958 181.246 167.957 181.131 171.013 184.188C172.395 185.574 172.917 187.27 173.464 189.068C173.67 189.741 173.781 190.644 173.906 191.662C174.215 194.182 174.611 197.401 176.749 199.539C181.552 204.342 189.145 201.828 195.492 195.651C201.668 189.305 204.182 181.712 199.379 176.909C197.244 174.774 194.024 174.377 191.502 174.066C190.485 173.941 189.581 173.829 188.908 173.623C187.11 173.077 185.41 172.555 184.028 171.173C180.972 168.112 181.082 163.114 184.363 159.065C188.602 153.834 204.098 141.171 205.709 139.958C207.841 138.356 210.614 138.992 212.424 141.069C215.196 144.249 231.972 161.787 232.523 162.338C238.14 167.955 241.51 166.217 244.308 160.85C244.362 160.747 244.418 160.634 244.479 160.51Z" fill="#16A34A"/>
</svg>
